<svg xmlns="http://www.w3.org/2000/svg" xmlns:xlink="http://www.w3.org/1999/xlink" viewBox="0 0 410.66 38.48"><defs><style>.cls-1{fill:#1d1d1b;}.cls-2{fill:url(#ÉXÉyÉNÉgÉã_);}</style><linearGradient id="ÉXÉyÉNÉgÉã_" x1="-466.57" y1="2601.88" x2="-466.57" y2="2567.59" gradientTransform="translate(836.95 -2459.84) scale(0.96)" gradientUnits="userSpaceOnUse"><stop offset="0" stop-color="#00a0db"/><stop offset="0.2" stop-color="#362983"/><stop offset="0.4" stop-color="#e4007d"/><stop offset="0.6" stop-color="#e31f21"/><stop offset="0.8" stop-color="#ffe900"/><stop offset="1" stop-color="#009447"/></linearGradient></defs><title>bizhub-1060-logo</title><g id="PRESS_C1060" data-name="PRESS C1060"><polygon class="cls-1" points="28.57 37.96 28.57 15.03 35.18 15.03 35.18 37.96 28.57 37.96 28.57 37.96 28.57 37.96"/><polygon class="cls-1" points="28.43 10.35 28.43 5.08 35.33 5.08 35.33 10.35 28.43 10.35 28.43 10.35 28.43 10.35 28.43 10.35"/><polygon class="cls-1" points="39.63 37.96 51.58 19.55 40.6 19.55 40.6 15.03 61.6 15.03 49.51 33.58 61.45 33.58 61.45 37.96 39.63 37.96 39.63 37.96 39.63 37.96"/><path class="cls-1" d="M88.65,40V27.61c0-3.49-.67-6.46-4.31-6.46-3.19,0-4.82,3-4.82,6.16V40H72.84V12.54L79.52,2.37v18a8.69,8.69,0,0,1,7.35-3.71c5.56,0,8.38,3.26,8.38,8.76V40Z" transform="translate(-6.86 -2.04)"/><path class="cls-1" d="M116.33,17.07V30c0,3.34-1.7,6-4.9,6-3.56,0-4.3-2.82-4.3-6.46V17.07h-6.61v14c0,5.71,2.75,9.27,8.39,9.27a8.18,8.18,0,0,0,7.5-3.86l.14,3.49H123V17.07Z" transform="translate(-6.86 -2.04)"/><path class="cls-1" d="M18.66,40.23A8.84,8.84,0,0,1,13.39,37l-.23,3H6.86V7.12h6.67V20.26a8.71,8.71,0,0,1,5.13-3.41,7.38,7.38,0,0,1,2.22-.3c6.83,0,10,5.2,10,11.65S27.27,40.45,20.51,40.45a7.82,7.82,0,0,1-1.85-.22Zm0-19.52c-3.27,0-5.35,2.89-5.35,7.79s2.23,7.72,5.35,7.72S24,33.55,24,28.5s-2.08-7.79-5.34-7.79Z" transform="translate(-6.86 -2.04)"/><path class="cls-1" d="M140.82,40.23A8.84,8.84,0,0,1,135.56,37l-.23,3H129V7.12h6.69V20.26a8.66,8.66,0,0,1,5.11-3.41,7.49,7.49,0,0,1,2.23-.3c6.83,0,9.95,5.2,9.95,11.65s-3.57,12.25-10.32,12.25a8,8,0,0,1-1.86-.22Zm0-19.52c-3.26,0-5.34,2.89-5.34,7.79s2.23,7.72,5.34,7.72,5.35-2.67,5.35-7.72-2.08-7.79-5.35-7.79Z" transform="translate(-6.86 -2.04)"/><path class="cls-1" d="M178.34,30.62a14.45,14.45,0,0,1-4.62.7c-1.2,0-3.15,0-4.1,0V40h-5.85V17.08h9.34c2.49,0,4.66.15,6.39,1.33a6.78,6.78,0,0,1,2.89,5.87,6.48,6.48,0,0,1-4,6.34m-6.17-9.71h-2.55v6.57h2.3c2.45,0,4.63-.63,4.63-3.36s-2-3.21-4.38-3.21" transform="translate(-6.86 -2.04)"/><path class="cls-1" d="M198.62,40a16.64,16.64,0,0,1-.56-2.86c-.13-1-.25-2-.38-3-.34-2.7-.85-3.55-3.59-3.55H191V40H185.1V17.08h9.78a13.53,13.53,0,0,1,5.66.79,5.3,5.3,0,0,1,3.46,5,5.22,5.22,0,0,1-2.07,4.35,7.9,7.9,0,0,1-3.15,1.3c3.68.09,4.28,1.87,4.81,6.37A17.13,17.13,0,0,0,204.7,40Zm-4.93-19.13H191v6h2.49c2.39,0,4.87-.32,4.87-3.08,0-2.6-2.29-2.95-4.65-2.95" transform="translate(-6.86 -2.04)"/><polygon class="cls-1" points="201.07 37.97 201.07 15.04 217.24 15.04 217.24 18.97 206.83 18.97 206.83 24.39 216.71 24.39 216.71 28.26 206.83 28.26 206.83 34.07 217.58 34.07 217.58 37.97 201.07 37.97"/><path class="cls-1" d="M236.47,40.45c-5.56,0-9.62-2-9.68-7.48h5.88c.06,2.47,1.35,3.77,3.93,3.77,2,0,3.93-1,3.93-3.07,0-1.18-.79-1.81-1.88-2.26s-2.49-.79-4.19-1.3c-3.36-1-7.2-2.19-7.2-6.44,0-5,4.65-7,9.78-7s9,1.84,9,6.82h-5.88c-.16-2.19-1.29-3.26-3.49-3.26-1.77,0-3.4.85-3.4,2.66,0,1,1,1.71,2.61,2.31,1.19.48,2.67.89,4.22,1.37,3.26,1,6.54,2.19,6.54,6.53,0,5.62-5.57,7.39-10.2,7.39" transform="translate(-6.86 -2.04)"/><path class="cls-1" d="M258.53,40.45c-5.57,0-9.63-2-9.69-7.48h5.88c.06,2.47,1.35,3.77,3.93,3.77,2,0,3.93-1,3.93-3.07,0-1.18-.78-1.81-1.88-2.26s-2.49-.79-4.19-1.3c-3.36-1-7.2-2.19-7.2-6.44,0-5,4.66-7,9.78-7s9,1.84,9,6.82h-5.88c-.16-2.19-1.29-3.26-3.5-3.26-1.76,0-3.39.85-3.39,2.66,0,1,1,1.71,2.61,2.31,1.19.48,2.67.89,4.22,1.37,3.26,1,6.54,2.19,6.54,6.53,0,5.62-5.57,7.39-10.19,7.39" transform="translate(-6.86 -2.04)"/><polygon class="cls-2" points="410.66 5.08 388.12 5.08 367.42 37.96 389.96 37.96 410.66 5.08"/><path class="cls-1" d="M288.33,40.44c-7.23,0-10.4-5-10.4-11.67s3.33-12.06,10.4-12.06c4.16,0,8.41,2,8.54,6.76h-4.06c-.25-2.47-2.19-3.68-4.5-3.68-4.83,0-6.29,4.92-6.29,9s1.56,8.69,6.38,8.69c2.32,0,4.6-1.3,4.73-4h4.12c-.44,5.08-4.6,7-8.92,7" transform="translate(-6.86 -2.04)"/><path class="cls-1" d="M329.89,28.39c0-5.53-1.68-11.75-8.15-11.75s-8.32,6.22-8.32,11.68,1.58,12.19,8.19,12.19,8.28-6.57,8.28-12.12m-3.84.28c0,3.18-.41,9.08-4.47,9.08s-4.26-6-4.26-9,.26-9.36,4.45-9.36c4,0,4.28,6.22,4.28,9.33" transform="translate(-6.86 -2.04)"/><path class="cls-1" d="M369.74,28.39c0-5.53-1.68-11.75-8.16-11.75s-8.32,6.22-8.32,11.68,1.59,12.19,8.19,12.19,8.29-6.57,8.29-12.12m-3.84.28c0,3.18-.41,9.08-4.48,9.08s-4.25-6-4.25-9,.25-9.36,4.44-9.36c4,0,4.29,6.22,4.29,9.33" transform="translate(-6.86 -2.04)"/><path class="cls-1" d="M306.14,40V20.81a16,16,0,0,1-5.09,3.1V20.75a15.26,15.26,0,0,0,5.6-3.61h3.26V40Z" transform="translate(-6.86 -2.04)"/><path class="cls-1" d="M349.76,32.48c0-4.38-2.64-7.55-7-7.55a6.05,6.05,0,0,0-5.69,3.27c0-3.85.89-8.93,4.86-8.93a3.35,3.35,0,0,1,3.53,3.43h3.78c-.16-4.32-3.69-6.06-7.21-6.06-6.8,0-8.64,6.41-8.64,12.29s1.88,11.59,8.54,11.59a7.71,7.71,0,0,0,7.82-8m-3.66.13c0,2.76-1.42,5.18-4.25,5.18s-4.29-2.38-4.29-5.09,1.62-5.17,4.45-5.17,4.09,2.38,4.09,5.08" transform="translate(-6.86 -2.04)"/></g><g id="bizhub"><path class="cls-1" d="M35.51,16.76h6.67V39.83H35.51Zm-.14-10h6.94v5.3H35.37Z" transform="translate(-6.86 -2.04)"/><polygon class="cls-1" points="39.73 37.79 51.79 19.29 40.76 19.29 40.76 14.77 61.8 14.77 49.69 33.36 61.65 33.36 61.65 37.79 39.73 37.79"/><path class="cls-1" d="M89,39.83V27.33c0-3.48-.72-6.41-4.39-6.41-3.13,0-4.84,3-4.84,6.16V39.83H73.08V12.27L79.75,2V20.15a8.84,8.84,0,0,1,7.4-3.75c5.62,0,8.45,3.26,8.45,8.78V39.83Z" transform="translate(-6.86 -2.04)"/><path class="cls-1" d="M116.77,16.81V29.74c0,3.34-1.76,6-4.93,6-3.6,0-4.3-2.84-4.3-6.46V16.81h-6.67v14c0,5.74,2.74,9.35,8.41,9.35a8.29,8.29,0,0,0,7.53-3.88l.19,3.51h6.44v-23Z" transform="translate(-6.86 -2.04)"/><path class="cls-1" d="M18.68,36c-3.14,0-5.34-2.86-5.34-7.79s2.09-7.79,5.34-7.79S24,23.17,24,28.24,21.82,36,18.68,36m2.24-19.77A9,9,0,0,0,13.52,20V6.8H6.86v33h6.32l.21-3.06a9.11,9.11,0,0,0,7.12,3.52c6.82,0,10.37-5.78,10.37-12.29s-3.14-11.74-10-11.74" transform="translate(-6.86 -2.04)"/><path class="cls-1" d="M141.34,36c-3.14,0-5.34-2.86-5.34-7.79s2.09-7.79,5.34-7.79,5.34,2.72,5.34,7.79S144.48,36,141.34,36m2.24-19.77a9,9,0,0,0-7.4,3.75V6.8h-6.67v33h6.32l.22-3.06a9.1,9.1,0,0,0,7.12,3.52c6.81,0,10.37-5.78,10.37-12.29s-3.14-11.74-10-11.74" transform="translate(-6.86 -2.04)"/></g></svg>