<?xml version="1.0" encoding="utf-8"?>
<!-- Generator: Adobe Illustrator 19.0.0, SVG Export Plug-In . SVG Version: 6.00 Build 0)  -->
<svg version="1.1" id="Layer_1" xmlns="http://www.w3.org/2000/svg" xmlns:xlink="http://www.w3.org/1999/xlink" x="0px" y="0px"
	 viewBox="0 0 127 52" style="enable-background:new 0 0 127 52;" xml:space="preserve">
<style type="text/css">
	.st0{fill:#434343;}
	.st1{fill:#781F41;}
	.st2{fill:#9D9D9D;}
</style>
<g>
	<g>
		<path class="st0" d="M1.3,19.7h8.3V22H3.8v3.1h4.7v2.3H3.8v4.8H1.3V19.7z"/>
		<path class="st0" d="M10.7,19.7h2.6v12.6h-2.6V19.7z"/>
		<path class="st0" d="M22.2,32.3l-2.7-4.2l-2.7,4.2H14l4.2-6.4l-3.9-6.2h2.9l2.4,4l2.4-4h2.9L21,25.9l4.1,6.4H22.2z"/>
		<path class="st0" d="M26.6,28.4c0.8,1.1,1.7,1.8,3.1,1.8c1.1,0,1.8-0.5,1.8-1.4c0-0.7-0.4-1-1.6-1.6l-1.4-0.6
			c-1.9-0.9-3-1.9-3-3.6c0-2.2,1.8-3.6,4.2-3.6c1.9,0,3.4,0.9,4.2,2.4L32,23.2c-0.6-1-1.4-1.4-2.4-1.4c-0.9,0-1.6,0.4-1.6,1.2
			c0,0.7,0.4,1,1.5,1.4l1.4,0.6c2.1,0.9,3.1,2,3.1,3.7c0,2.3-1.9,3.8-4.4,3.8c-2.1,0-3.9-1.1-4.9-2.8L26.6,28.4z"/>
		<path class="st0" d="M35.6,19.7h8.5V22h-5.9v2.6h4.3v2.2h-4.3V30h6.1v2.3h-8.7V19.7z"/>
		<path class="st0" d="M45.9,19.7h2.6V30H54v2.3h-8.1V19.7z"/>
		<path class="st0" d="M54.8,19.7h2.6V30h5.5v2.3h-8.1V19.7z"/>
		<path class="st0" d="M79.4,19.7v12.8h-0.9l-7.3-7.8v7.5h-2.6V19.5h0.8l7.3,7.7v-7.5H79.4z"/>
		<path class="st1" d="M87.6,19.5c3.6-0.1,6.8,2.9,6.7,6.5c0.1,3.6-3.1,6.6-6.7,6.5c-3.6,0.1-6.7-2.9-6.7-6.5
			C80.8,22.4,83.9,19.4,87.6,19.5z M87.6,21.9c-2.3,0-4,1.7-4,4.1c0,2.4,1.7,4.1,4,4.1c2.3,0,4-1.7,4-4.1
			C91.6,23.6,89.9,21.9,87.6,21.9z"/>
		<path class="st0" d="M103.5,32.3l-3.3-4.4h-1.9v4.4h-2.6V19.7h4.7c2.6,0,4.5,1.6,4.5,4.1c0,1.6-0.8,2.9-2.2,3.6l3.6,4.9H103.5z
			 M98.3,25.6h2.2c1.2,0,1.9-0.7,1.9-1.8c0-1.1-0.7-1.8-1.9-1.8h-2.2V25.6z"/>
		<path class="st0" d="M109.7,22h-4v-2.3h10.6V22h-4v10.3h-2.6V22z"/>
		<path class="st0" d="M117,19.7h8.5V22h-5.9v2.6h4.3v2.2h-4.3V30h6.1v2.3H117V19.7z"/>
	</g>
	<g>
		<path class="st2" d="M58.1,25.8h1.3c1.1,0,2,0.7,2,1.8c0,1.1-0.9,1.9-2,1.8h-1.3V25.8z M59.4,28.6c0.6,0,1-0.4,1-1
			c0-0.6-0.4-1-1-1H59v1.9H59.4z"/>
		<path class="st2" d="M61.9,25.8h2.5v0.9h-1.6v0.5h1.1V28h-1.1v0.6h1.7v0.9h-2.6V25.8z"/>
		<path class="st2" d="M65,25.8h1v2.8h1.5v0.9H65V25.8z"/>
	</g>
</g>
</svg>
