<svg id="Capa_1" data-name="Capa 1" xmlns="http://www.w3.org/2000/svg" viewBox="0 0 250 119.07"><defs><style>.cls-1{fill:#fff;fill-rule:evenodd;}</style></defs><title>lg</title><path class="cls-1" d="M76.55,4.92a59.53,59.53,0,1,0,59.53,59.53A59.53,59.53,0,0,0,76.55,4.92ZM91.05,85.4V90H78.72v0H74.15V38.81h4.57V85.4Zm-14.5,28.89a49.84,49.84,0,0,1,0-99.68c.73,0,1.45,0,2.17.05V19.2c-.72,0-1.44-.05-2.16-.05a45.3,45.3,0,1,0,45.26,47.34v-.14H91.12V61.78h35.2c0,.89.07,1.77.07,2.67A49.85,49.85,0,0,1,76.55,114.29ZM65,45.6a7,7,0,1,1-7-7A7,7,0,0,1,65,45.6Z" transform="translate(-17.02 -4.92)"/><polygon class="cls-1" points="148.63 88.76 191.17 88.76 191.17 75.91 165.49 75.91 164.25 75.91 164.25 74.67 164.25 29.9 148.63 29.9 148.63 88.76 148.63 88.76"/><path class="cls-1" d="M259.58,39c-4.88-3.78-11.15-5.69-18.65-5.69-8.9,0-16.33,2.73-21.5,7.9-5.4,5.39-8.25,13.35-8.25,23,0,10.31,3,19,8.5,24.49a22.89,22.89,0,0,0,16.6,6.57c14.41,0,17.73-8.63,17.73-8.63v7.08h13V60.43h-25.9v10.4H253s.11,13.09-12.19,13.09a11.14,11.14,0,0,1-8-3.27c-3.34-3.34-5.1-9-5.1-16.24,0-12.07,4.79-19.27,12.82-19.27a9.54,9.54,0,0,1,9.76,7.75h16.57C266,46.1,264.13,42.57,259.58,39Z" transform="translate(-17.02 -4.92)"/></svg>