<svg id="Layer_1" data-name="Layer 1" xmlns="http://www.w3.org/2000/svg" viewBox="0 0 250 30.54"><defs><style>.cls-1{fill:#fff;fill-rule:evenodd;}</style></defs><title>logo-thomasbetts</title><path class="cls-1" d="M73,16.36c2.77,2.5.69,6.29,0,9-1.73,4.42-3.06,11.06-9.12,11.29-3.69.41-8.19.81-11.19-1.28-2.83-2.44-.86-6.58,0-9.31,1.62-4.36,3.47-11.17,9.46-11.17,3.7-.23,7.85-.52,10.85,1.45Zm82.22,6.46a68,68,0,0,0,4.74,7,8.78,8.78,0,0,1-7.68,2.39,3.72,3.72,0,0,1-2.43-1.86,3.86,3.86,0,0,1,.41-4.19,16,16,0,0,1,4.68-3.32Zm-29.83-5.06a6.72,6.72,0,0,1-.46,4l-5.08,14.14-.23.23a58.18,58.18,0,0,1-6.34,0c-.24-.24.23-.82-.12-1a7.57,7.57,0,0,1-7.61.4,3.4,3.4,0,0,1-1.62-2.67,11.26,11.26,0,0,1,2.48-7.27c2.77-3.09,7.1-2.39,11-2.74.46-1.1,1.15-2.33.81-3.6a1.76,1.76,0,0,0-1.91-.36c-1.15.3-1.15,1.81-2.08,2.22L108.06,21c-.17-.93.52-1.8.93-2.62,1.78-3.32,5.36-3.55,8.71-3.84,2.77.47,6.46.06,7.67,3.2Zm35.78-5.64a2.42,2.42,0,0,1,.92,1.8c-.17,2.91-3.4,4.19-5.54,5.18-.58-.06-.58-.88-.81-1.34-.63-1.63-.52-4,.81-5.24a3.58,3.58,0,0,1,4.62-.4ZM44.82,8.62c-.63,2.33-1.67,4.72-2.36,7.1l.17.12c2.71-1.16,6.64-1.51,9.18.12a3.73,3.73,0,0,1,1.26,2.56L52.56,21,46.8,36l-.35.23c-2.31-.06-4.67.06-6.92-.12v-.64l5.41-14.15a1.37,1.37,0,0,0-.75-1.75,3.48,3.48,0,0,0-2.54.18c-1,.58-1.27,1.74-1.73,2.68L34.68,36.05l-.23.17H27.59l-.12-.17,1.89-4.79L37.44,8.8l.23-.23c2.37-.06,4.9-.12,7.15,0Zm99,7.39a3.78,3.78,0,0,1,1.44,3,7.33,7.33,0,0,1-.52,2.73l-.46.17-5.89.06-.34-.17c.06-.76.58-1.75,0-2.45a2.41,2.41,0,0,0-2.19-.34,2.64,2.64,0,0,0-1.5,2.55c.17.76,1,1.22,1.67,1.46,2.48,1.05,6.17,2,6.4,5.47a8,8,0,0,1-3.68,6.64c-2.65,1.57-6.06,1.4-9.23,1.34-2.07-.29-4.32-.7-5.54-2.67-.81-1.29-.42-3,0-4.44l.29-.29,6.81.06c.05.81-.46,1.63,0,2.44a2,2,0,0,0,2.07.64,2.28,2.28,0,0,0,1.79-1.51,2.06,2.06,0,0,0-.17-1.92c-2.71-1.92-7.79-1.92-7.79-6.4a7.53,7.53,0,0,1,4.1-6.63c3.4-1.4,8.07-1.17,11.59-.24l1.16.53ZM154.28,26.2a3.2,3.2,0,0,0-2,1.57,1.57,1.57,0,0,0,.58,2c.63.35,1.22,0,1.91-.15.47-.18,1.49-.07,1.38-.66l-1.85-2.73Zm-41.08.69a4.29,4.29,0,0,0-2,4,1.36,1.36,0,0,0,1.09,1,2.25,2.25,0,0,0,2.08-.93,16.2,16.2,0,0,0,1.5-4.36,6.12,6.12,0,0,0-2.71.28Zm97.69-9.76c1.16,3.26-.45,6.52-1.49,9.43-3.87.17-7.79.17-11.77.23-.87.82-.87,2.1-1.28,3.2a1.43,1.43,0,0,0,.82,1.69,3,3,0,0,0,2.42-.11c1-.71,1.39-1.87,2-2.91,2.19-.12,4.67-.07,7,0l.12.23c-.92,3.08-3.41,6.4-6.81,7-3.64.41-8,1-10.91-1.16-1.67-1.4-2-3.55-1.61-5.65,1.21-4.07,2.37-8.2,4.84-11.81,2.83-3.55,7.68-3,12-2.85,1.79.41,3.87.76,4.78,2.73Zm-9.51,1.52c-1.39.81-1.85,2.44-2.08,3.84a24.41,24.41,0,0,0,4.1-.06c.4-1,1.27-2.21.69-3.37a2.34,2.34,0,0,0-2.71-.41ZM166,10a7.79,7.79,0,0,1-.29,7.68,15.6,15.6,0,0,1-4.67,4.42l-.12.29c.75,1.22,1.67,2.33,2.42,3.55a7.21,7.21,0,0,1-1.56,1.74,32.06,32.06,0,0,1-4.26-6.22l.05-.29c2.71-1.4,6.35-3.49,6.81-6.92a4.61,4.61,0,0,0-1.62-4.2,6.76,6.76,0,0,0-5.7-1,6.31,6.31,0,0,0-4.33,4.66c-.52,2.21.23,4.48,1,6.46-3,1.63-7.5,4.07-7.33,8.26a5.9,5.9,0,0,0,2.83,4.89c3.58,2.21,8.42.81,11.6-1.28,3.8-2.56,5.88-6.64,7.09-10.65L172.81,8l.58-.12,13.79.06a5.09,5.09,0,0,1,4.56,2.73c1.33,3,.06,6.35-1.67,8.73a8.85,8.85,0,0,1-4,2.45,5.29,5.29,0,0,1,2.19,4.94c-.58,3.09-1.73,6.46-4.9,7.92a12.23,12.23,0,0,1-5.66,1.1H163l-.18-.17c.12-.88.81-1.63.7-2.56-3.87,3.14-9.18,4.83-14.08,3a8.1,8.1,0,0,1-5.54-6.57,9.54,9.54,0,0,1,3.87-8.44c.92-.82,2.07-1.28,2.88-2.1a10.35,10.35,0,0,1,.87-8.95A9.43,9.43,0,0,1,161,6.66,7.34,7.34,0,0,1,166,10Zm16.85,3.84c-1.1-.7-2.66-.41-3.93-.3-.46,1.69-1.38,3.26-1.61,5a13.77,13.77,0,0,0,4.38-.23,3.56,3.56,0,0,0,1.73-3.67l-.57-.81Zm-4.16,9.89a11.43,11.43,0,0,0-3.46.11,41.43,41.43,0,0,0-1.91,5.59c1.62.06,3.53.29,4.91-.35A4,4,0,0,0,180.09,25a2.26,2.26,0,0,0-1.39-1.22ZM159,13.45a1.53,1.53,0,0,0-1.27,1,2.38,2.38,0,0,0,.06,1.87c.87-.41,2-1.23,2-2.33a.73.73,0,0,0-.81-.53ZM64.44,19.27a2.53,2.53,0,0,0-1.73,1.05c-1.67,3-2.54,6.4-3.64,9.66l0,1.28a1.37,1.37,0,0,0,.92.87,2.81,2.81,0,0,0,2.88-.75,77.26,77.26,0,0,0,3.7-9.55c.06-.63.46-1.51-.17-2a2.38,2.38,0,0,0-1.91-.53Zm30.41-2.5c.63.12,1-.81,1.56-1,2.42-1.16,6-1.34,8.31.18A3.19,3.19,0,0,1,106,18.57l-.23,1.81c-1.73,5.24-3.91,10.19-5.81,15.37l-.23.24-7-.06,0-.76,5.47-14.33a1.27,1.27,0,0,0-.8-1.28,2.61,2.61,0,0,0-2.26.41l-.69.93-5.7,15-.4.23-6.58-.05-.11-.36,5.52-14.85a1,1,0,0,0-.58-1.22,2.6,2.6,0,0,0-2.42.47l-.81,1.28L78,35.81l-.3.29H71l-.11-.41,7.6-20.26.35-.17h6.29c.23.29-.12.7-.06,1.1.69-.23,1.32-.75,2.08-1,2.35-.67,5.49-1.61,7.67,1.39Zm164.38-1.11a3.79,3.79,0,0,1,1.45,3,7.34,7.34,0,0,1-.52,2.74l-.46.17-5.89.06-.34-.18c.06-.75.57-1.74,0-2.44a2.47,2.47,0,0,0-2.2-.35,2.68,2.68,0,0,0-1.49,2.57c.16.75,1,1.22,1.67,1.45,2.48,1,6.17,2,6.4,5.47a8,8,0,0,1-3.68,6.64c-2.65,1.58-6,1.4-9.23,1.34-2.08-.29-4.33-.7-5.54-2.67-.8-1.28-.42-3,0-4.44l.28-.29,6.82.06c0,.81-.47,1.63,0,2.44a2,2,0,0,0,2.07.64,2.26,2.26,0,0,0,1.79-1.51,2.06,2.06,0,0,0-.17-1.92c-2.71-1.92-7.79-1.92-7.79-6.4a7.53,7.53,0,0,1,4.1-6.63c3.4-1.4,8.07-1.17,11.59-.24l1.15.52ZM226.86,9.38l-1.78,5.36.17.17h5.89c1-1.16.63-3.55,2.53-3.72,2.37-.59,4.68-1.52,7.1-1.93-.4,1.81-1.32,3.55-1.73,5.42l.23.23,3.81.06.12.29-1.28,3.43-.28.17-4.1.12c-1.62,3.61-2.83,7.33-4.15,11.06a1,1,0,0,0,.75,1.16,19.14,19.14,0,0,0,3.63,0c-.23,1.63-1.19,2.87-1.77,4.38-2.89.41-6.52,1-9.29-.18a3.07,3.07,0,0,1-1.52-3l.58-2.38c1.33-3.61,2.77-7.22,3.92-10.94a36,36,0,0,0-6.23-.06c-1.5,3.61-2.71,7.33-4,11a1,1,0,0,0,.58,1.22,14.29,14.29,0,0,0,3.52,0l.18.18-1.84,4.15c-3.17.35-6.81,1-9.69-.53a2.74,2.74,0,0,1-1-2.4l.29-1.74,4.27-11.64-.06-.23c-1-.24-2.19,0-3.11-.29l1.27-3.61.4-.23,3-.06a31.09,31.09,0,0,0,1.38-3.38c2.66-.93,5.43-1.57,8.14-2.32l.11.17Zm-191-.76a42.74,42.74,0,0,1-2.13,6.29l-.35.17-6.75.06-.4.64L18.58,36.05l-.28.17-7.5-.06-.12-.35,7.6-20.43-.23-.24L10.89,15A51.15,51.15,0,0,1,13,8.8l.47-.23,21.69-.06.75.11Z" transform="translate(-10.68 -6.46)"/></svg>