<svg id="Layer_1" data-name="Layer 1" xmlns="http://www.w3.org/2000/svg" viewBox="0 0 250 303.22"><defs><style>.cls-1{fill:#fff;fill-rule:evenodd;}</style></defs><title>logo-semex</title><path class="cls-1" d="M152.23,156.4c1.54-7.82-4.71-29.67,12.46-27.7,6.24.36,9.77,3.89,13.66,6.61l35.89,25a131.09,131.09,0,0,1,11.71,8.6c11.7,8.18,12.48,15.21.78,23.81l-48,33.56c-3.89,2.72-7.42,6.25-13.27,7.4-17.56,3.53-12.09-17.57-13.24-27.31-33.18,0-66.33.39-99.09,0-10.92,0-10.55,9-10.55,17.17,0,6.24,0,11.31,3.92,14.45,4.67,3.89,7.78,3.11,14.81,3.11H224.77c5.07,0,12.88.78,16.77-1.18a12.64,12.64,0,0,0,6.64-11.71c.39-30,0-60.47,0-90.53,0-6.64.39-10.53-3.5-14.82-3.92-3.92-8.21-3.14-14.84-3.14H138.56c0,10.93,2.36,31.63-11.7,29.28-6.24-1.18-19.91-11.71-25.37-15.61L65.24,108c-3.53-2.35-9-5.85-9.38-11.31-.79-6.64,3.92-9.75,7.42-12.5l48.38-34c3.89-2.74,7.78-6.24,13.24-7.42,16.77-3.5,13.27,14.45,13.66,27,3.11.39,81.93,0,90.89,0,6.63,0,10.55.39,14.83-3.14s3.9-8.57,3.9-14.82c0-7,.78-10.92-3.5-14.84-4.32-4.29-7.81-3.51-14.84-3.51H65.63c-9.38,0-23.41-2.35-23,13.67,0,24.18-.76,49.17,0,73v18.34c0,6.25-.37,11.71,3.52,14.82,5.07,4.32,6.64,3.53,14.81,3.53,30.05,0,60.87,0,91.31-.39Z" transform="translate(-24.61 -27.74)"/><path class="cls-1" d="M152.23,156.4c-30.44.39-61.26.39-91.31.39-8.17,0-9.74.79-14.81-3.53-3.89-3.11-3.52-8.57-3.52-14.82V120.1c-.76-23.81,0-48.8,0-73-.37-16,13.66-13.67,23-13.67H229.84c7,0,10.52-.78,14.84,3.51,4.28,3.92,3.5,7.81,3.5,14.84,0,6.25.39,11.32-3.9,14.82s-8.2,3.14-14.83,3.14c-9,0-87.78.39-90.89,0-.39-12.5,3.11-30.45-13.66-26.95-5.46,1.18-9.35,4.68-13.24,7.42l-48.38,34c-3.5,2.75-8.21,5.86-7.42,12.5.39,5.46,5.85,9,9.38,11.31l36.25,25.38c5.46,3.9,19.13,14.43,25.37,15.61,14.06,2.35,11.7-18.35,11.7-29.28h91.28c6.63,0,10.92-.78,14.84,3.14,3.89,4.29,3.5,8.18,3.5,14.82,0,30.06.39,60.51,0,90.53a12.64,12.64,0,0,1-6.64,11.71c-3.89,2-11.7,1.18-16.77,1.18H61.32c-7,0-10.14.78-14.81-3.11-3.92-3.14-3.92-8.21-3.92-14.45,0-8.18-.37-17.17,10.55-17.17,32.76.39,65.91,0,99.09,0,1.15,9.74-4.32,30.84,13.24,27.31,5.85-1.15,9.38-4.68,13.27-7.4l48-33.56c11.7-8.6,10.92-15.63-.78-23.81a131.09,131.09,0,0,0-11.71-8.6l-35.89-25c-3.89-2.72-7.42-6.25-13.66-6.61-17.17-2-10.92,19.88-12.46,27.7ZM50.79,28.38A17.45,17.45,0,0,0,36.73,43.59c-.75,8.21,0,20.31,0,28.89.4,19.52,0,39,0,58.54,0,9.38-1.14,18.35,3.92,24.59,5.86,7.43,11.31,6.64,22.63,6.64h87.38c11.7,0,5.46-2,7.42-21.48,1.15-12.47,12.09-4.29,16.77-1.15,5.85,4.29,11.31,8.18,17.16,12.1,2.33,1.54,32.76,23,34.33,24.18,7.81,6.63-3.14,12.1-7.81,15.63-12.88,9-29.26,20.67-42.51,30.05-2.35,1.15-6.63,5.07-9,5.86-11.71,4.28-9-6.64-9-18.35,0-9.78,2.71-8.21-21.08-8.21H50c-7.41,0-12.87,7.82-13.27,16.39,0,9.78-1.14,18,5.1,24.2,6.61,6.64,12.85,5.07,23.8,5.07H211.5c6.24,0,23.8.79,28.86-.39A17.9,17.9,0,0,0,254,230.55c.39-8.6,0-19.92,0-28.88V143.12c0-10.53,1.17-17.17-5.07-23.81-5.85-6.64-13.27-5.46-23.8-5.46H137.78c-9,0-3.11,8.21-5.07,23.81-1.57,10.92-9.35,4.29-16.77-1.18-5.46-3.89-11.31-7.78-17.16-12.1C96,122.45,66,102.14,64.45,100.57c-3.13-2.72-3.92-6.25-.78-9.75,1.57-1.17,38.61-27.31,42.89-30,2.75-1.94,15.62-11.32,17.19-12.1,11.31-4.29,9,7.81,9,19.13,0,7.42-.39,7.81,7,7.81h72.94c6.24,0,23.4.39,28.47-.78a17,17,0,0,0,12.49-16.78c.39-10.56,1.17-18.35-4.68-24.6-6.63-7-12.49-5.46-23.8-5.46H79.65c-7.41,0-23-.78-28.86.39Z" transform="translate(-24.61 -27.74)"/><path class="cls-1" d="M169.39,173.57H41.83l-.39,15.6h128v22.24c1.54,0,39.39-27.31,44.07-30.42-1.57-1.17-9-6.24-10.92-7.81-4.28-2.75-31.22-22.24-33.15-22.64Z" transform="translate(-24.61 -27.74)"/><path class="cls-1" d="M77.33,95.11c.76,1.18.37.39,1.15,1.18,2,1.56,27.72,19.13,31.61,21.84,2,1.57,9.35,7,11.31,7.82V102.53l128.34-.78c.4-2.72.4-12.1.4-15.21l-128.74.39V65.05c-2,.39-9,5.86-10.92,7.43L88.64,87.71c-2,1.15-3.53,2.33-5.49,3.51a51.74,51.74,0,0,1-5.82,3.89Z" transform="translate(-24.61 -27.74)"/><path class="cls-1" d="M133.89,272.31c-7.81.79-12.1,5.86-12.1,14,0,12.1-.39,27.73,0,39.44,0,6.61,6.25,4.28,7,3.5,1.54-2,.78-32.38.78-39,0-4.68-.78-9,4.68-8.21,4.28.39,3.11,5.46,3.11,9.75V318c0,4.68-.79,9,2.35,10.93,2.72,1.57,7.78,2,10.53.39,3.5-2,3.11-5.86,3.11-10.53V292.59c0-3.89-1.15-10.14,2.35-10.92,5.85-1.18,5.06,4.28,5.06,8.6-.39,8.57,0,17.56,0,26.13,0,3.93-.78,9,1.18,11.71,2,2.36,7,3.14,10.92,1.57,3.5-1.17,3.89-4.28,3.89-9,0-5.46.39-36.67,0-39-1.15-7.42-8.57-9.75-16.77-9.75-7.39,0-19.09-.78-26.12.39Z" transform="translate(-24.61 -27.74)"/><path class="cls-1" d="M82.4,297.3c-.39-3.14,0-9,0-12.1,0-4.71,2.71-5.1,7-5.1,6.63,0,12.88-1.15,12.88,5.85,0,5.86,1.17,11.35-7,11.35Zm.39,8.57c5.85-.39,12.07-.39,18.31-.39,17.16.39,16-7.42,16-19.89,0-16-12.49-13.28-23.41-13.67-13.27,0-19.51,2.33-19.12,17.56,0,6.64-1.18,31.21,1.17,35.92,2.33,5.46,7,4.67,13.25,4.67,11.34,0,27.32,2.72,27.71-9.38.4-7,0-10.14-7.81-10.14-10.13.39-4.67,8.21-7.42,10.92-2.32,2.36-16.38,1.18-16.77,1.18-2.32-1.18-2.32-4.68-2.32-7.42.39-3.11,0-6.61.39-9.36Z" transform="translate(-24.61 -27.74)"/><path class="cls-1" d="M189.66,297.66v-9c0-3.11-.39-5.85,2.35-7.42,1.93-1.18,5.46-.79,8.18-.79,9,0,9.38,1.18,9.38,9.39,0,3.5,0,5.46-2.35,7-3.11,1.54-13.28,1.15-17.56.75Zm.39,8.6c12.88-.78,26.55,2.72,32-4.28,3.5-4.32,2.72-10.17,2.72-16,0-16-13.66-13.24-23.8-13.24-12.88,0-19.09,1.93-19.09,17.17,0,6.64-.79,30.81,1.15,35.52,1.95,5.85,6.63,5.07,13.27,5.07,5.85,0,12.48.39,18.33,0a9.18,9.18,0,0,0,9.36-9c.78-7,0-10.53-7.79-10.14-9.77.4-4.7,8.21-7.42,10.93-1.56,1.57-14.84,1.57-16.77.78-2.35-1.17-2-4.68-2-7.42v-9.36Z" transform="translate(-24.61 -27.74)"/><path class="cls-1" d="M32.06,312.9a7.36,7.36,0,0,0-7-.39c-.39,2-.79,8.18,0,10.53.36,2.75,2.71,4.68,5.07,5.86,3.5,1.57,17.16.78,22.23.78,7,0,14.42,1.18,16.38-5.85.78-3.14.78-18.74-.4-21.07-2.71-5.85-10.13-5.1-17.55-5.1-11.7,0-10.92.4-10.92-11.71.39-7.39,5.07-5.85,16.77-5.85S57,293,67.17,291.81c4.67-.76,3.13-13.25-.79-16.78-4.28-3.89-12.46-3.11-19.48-3.11-7.42,0-14.45-1.18-18.73,3.5s-2.75,12.1-3.11,19.53c0,10.14,5.46,10.14,12.46,10.14,6.24,0,16.4-1.94,17.16,5.07.39,2,.39,9-.39,10.53-1.54,2.74-5.46,2-9.35,2-2,0-9.35,0-10.92-.39-2.75-.79-1.18-6.25-2-9.36Z" transform="translate(-24.61 -27.74)"/><path class="cls-1" d="M242.33,302.37c-2,3.11-13.28,19.1-13.67,19.89-1.15,3.53,2,5.85,3.92,7.42,5.46,4.29,11.31-3.5,13.64-6.25,1.56-2,8.59-11.7,10.16-12.49l11.7,19.92c7,.78,5.46-3.53,3.5-7.43-1.17-2-2-3.5-3.1-5.46-2-3.5-3.92-7-5.86-10.53-3.13-4.68-2.74-3.14,1.94-10.14,2-3.53,4.31-6.64,6.63-10.17s5.46-6.64,1.57-11.32c-7.81-9-12.88,1.57-18.34,8.21-1.18,1.93-5.46,8.57-7.42,9.75a37.09,37.09,0,0,0-3.89-6.64l-7.81-12.88c-.79-1.15-1.15-1.94-3.11-1.94a4.84,4.84,0,0,0-3.53,2.33c-1.54,2.35,3.92,10.17,5.85,13.67,1.57,2.74,7,11.32,7.82,14.06Z" transform="translate(-24.61 -27.74)"/></svg>