<svg id="Capa_1" data-name="Capa 1" xmlns="http://www.w3.org/2000/svg" viewBox="0 0 242.53 44.33"><defs><style>.cls-1{fill:#fff;fill-rule:evenodd;}</style></defs><title>logo-tecmilenio</title><path class="cls-1" d="M26.94,13.82l0,.84H21.66c-1,0-1.73-.2-2.05.56A1.25,1.25,0,0,0,20.29,17c.76.15,6.22,0,7.84,0a2.71,2.71,0,0,1,2,.72,3.8,3.8,0,0,0-.33-1.43c-.25-.5-.49-.54-.5-1.23,2.25.28,2.34,2.69,2.34,4.28l-2.34,0V18.19h-2.4v1.18c-1.43,0-3-.43-3.11,1.05-.16,1.76,1.52,1.41,2.89,1.41.76,0,6.74-.08,7.33.08l.62.38.07.06c0-1.77-.74-1.05-.67-2.8,2.62.67,2.33,3.86,2.33,6.67V53.74h2.4V24.28c0-3.16-1.77-4.53-4.74-4.85,0-3.29-1.73-4.1-4.72-4.56-.07-3.38-2.24-5-5.23-4.91,1.33.57,2.84.48,2.83,3.86Z" transform="translate(-14.75 -9.85)"/><polygon class="cls-1" points="16.94 34.94 19.31 34.94 19.31 12.92 16.93 12.92 16.94 34.94 16.94 34.94"/><polygon class="cls-1" points="12.19 26.21 14.59 26.21 14.59 25.75 14.59 12.92 12.19 12.92 12.19 25.32 12.19 26.21 12.19 26.21"/><path class="cls-1" d="M25.27,13a3.12,3.12,0,0,0-1-2.28c-.73-.75-1.33-.83-2.65-.83H18.21c-.9,0-2.65-.28-3.16.33a1.24,1.24,0,0,0,.68,2h6.9c1,0,2.21,0,2.64.73Z" transform="translate(-14.75 -9.85)"/><path class="cls-1" d="M53,13.61a3.77,3.77,0,0,1,.71-2.53c.71-.85,1.06-.66,2-1.12A6.09,6.09,0,0,0,52,11.26c-1.06.89-1.25,1.91-1.36,3.6-2.93.52-4.75,1.24-4.73,4.55-3.28.53-4.73,1.71-4.72,5.09,0,9.57-.19,19.86,0,29.24h2.37V26.22c0-1.79-.45-6.25,2.33-6.64.1,1.3-.59,1.38-.68,2.86.63-.69.87-.61,2.13-.61h7.22c1,0,1.52-.17,1.59-1.12.12-1.67-1.32-1.34-3.1-1.34L53,18.19H50.66l0,1.16-2.34,0c0-1.6,0-3.89,2.31-4.3.09.71-.71,1.28-.8,2.6.92-.42.68-.62,2.15-.63s7.34.1,7.83,0c.67-.18.86-1.18.54-1.84s-1.15-.5-2.11-.5H53.05l0-1.05Z" transform="translate(-14.75 -9.85)"/><polygon class="cls-1" points="31.15 34.94 33.54 34.93 33.54 12.92 31.14 12.92 31.15 34.94 31.15 34.94"/><polygon class="cls-1" points="35.89 26.21 38.28 26.21 38.28 26.08 38.28 12.92 35.88 12.93 35.89 26.21 35.89 26.21"/><path class="cls-1" d="M54.71,13c.57-1.26,7.09-.62,9.43-.72a1.21,1.21,0,0,0,.76-2c-.49-.61-2.15-.33-3-.33-2.17,0-5-.34-6.18.74a3.13,3.13,0,0,0-1,2.35Z" transform="translate(-14.75 -9.85)"/><path class="cls-1" d="M90.58,13.8a12.61,12.61,0,0,1,.67,1.27l2,3.72c.46.83,2.32,4.47,2.7,4.89h2.94l0-13.49-2.34,0,0,9.74c-.33-.63-5-9.31-5.35-9.77H88.26V23.69l2.39-.05-.07-9.84Z" transform="translate(-14.75 -9.85)"/><path class="cls-1" d="M168.19,21.63V12.28c4.39-.22,5.42.35,5.42,4.67s-1.13,4.75-5.41,4.68ZM165.7,10.16c-.15,1.91,0,9.52,0,12.07,0,1.8-.3,1.47,1.53,1.53,4.81.14,8.94.27,8.92-6.16,0-1.94.07-3.68-.82-5.19-1.73-2.93-5.63-2.31-9.61-2.25Z" transform="translate(-14.75 -9.85)"/><path class="cls-1" d="M193.93,21.63V12.27c4.41-.2,5.42.36,5.42,4.68s-1.09,4.82-5.41,4.68Zm-2.51-11.41V23.61c.71.36,6.05.4,7.93-.51,2.06-1,2.56-3.18,2.56-6.15s-.42-5-2.55-6.15c-1.75-.92-6.64-.9-7.93-.58Z" transform="translate(-14.75 -9.85)"/><path class="cls-1" d="M137.43,12.28a13.67,13.67,0,0,1,3.34.17c1,.26,1.42.79,1.4,2,0,2.46-2.51,2.28-4.74,2.19V12.28Zm5,5.87a3.53,3.53,0,0,0,2.22-2.89,4.66,4.66,0,0,0-1-3.88c-1.7-1.69-6-1.28-8.7-1.21-.09,1.35-.14,12.88.05,13.52h2.37c.19-1.32-.19-3.85.1-4.94l2.33,0c.74.91,2.34,4.17,3,5h2.64c-.27-.83-2.91-4.87-3.07-5.54Z" transform="translate(-14.75 -9.85)"/><path class="cls-1" d="M181.76,17.81c.22-1,.6-2,.87-2.91.13-.45.61-2.6.75-2.88a4.13,4.13,0,0,1,.42,1.49c.33,1.34,1,3,1.25,4.3Zm-.47,2.1h4.22a24.69,24.69,0,0,1,1.19,3.78l2.73,0-4.11-13.47h-3.8l-4.05,13.5,2.6,0,1.22-3.75Z" transform="translate(-14.75 -9.85)"/><path class="cls-1" d="M74.71,10.18c-.12,1-.08,8.45.07,9.48C75.19,22.43,76.89,24,80,24s4.8-1.54,5.22-4.41a81.68,81.68,0,0,0,.05-9.39H82.82c-.1.73,0,6,0,7.19,0,2.49-.09,4.41-2.8,4.4-4.56,0-2-6.16-2.82-11.6Z" transform="translate(-14.75 -9.85)"/><polygon class="cls-1" points="107.82 13.82 116.45 13.84 116.45 11.74 110.39 11.73 110.39 7.94 116.07 7.93 116.07 5.88 110.39 5.86 110.39 2.47 116.45 2.46 116.45 0.34 107.86 0.33 107.82 13.82 107.82 13.82"/><path class="cls-1" d="M112.09,23.64l3.69.05c.25-.39,4.07-12.94,4.09-13.5h-2.53l-2.58,8.65c-.3,1-.48,2-.75,3-.29-.89-.45-2-.74-2.94S112.7,17,112.41,16c-.55-1.88-1.08-3.93-1.74-5.81h-2.6l4,13.45Z" transform="translate(-14.75 -9.85)"/><path class="cls-1" d="M147.49,21.6l0,1.93c.53.27,8.71,2,9.06-3s-5.45-4.46-6.62-6.3a1.49,1.49,0,0,1,0-1.61c.79-1,4.64-.37,6-.33V10.32c-3.35-.68-9-1.31-8.8,3.4a3.57,3.57,0,0,0,1.49,2.83c2.05,1.52,5.06,1.55,5.28,3.34.32,2.73-3.89,1.86-6.42,1.71Z" transform="translate(-14.75 -9.85)"/><path class="cls-1" d="M159.89,10.18c-.14,1-.11,13.05,0,13.51l2.48,0V10.19Z" transform="translate(-14.75 -9.85)"/><polygon class="cls-1" points="87.98 13.83 88.53 13.84 89.93 13.84 90.58 13.82 90.55 0.33 87.99 0.33 87.98 13.83 87.98 13.83"/><path class="cls-1" d="M74.68,35.39h6.38V54h5V35.39h7.87c0,2.27-.18,15.89.18,16.94s1.3,1.58,2.7,1.62,2.9,0,4.32,0h8.62V50.27H98.85l0-6.65,9.44,0,0-3.53H98.85V35.39c1.34,0,10.22.09,10.83-.06V31.64c-.9-.3-15.29-.08-17.52-.08-5.81,0-11.69-.08-17.5,0v3.82Z" transform="translate(-14.75 -9.85)"/><path class="cls-1" d="M136.74,37.87c.48,1.18,3.71,11.4,4.34,13.41.56,1.77,1,2.81,3.17,2.8s2.58-1.1,3.13-2.84l2.9-9a40.86,40.86,0,0,1,1.48-4.42V53.93H156V31.56c-5.69,0-6.36-.6-8.37,5.3-.59,1.72-1.14,3.37-1.71,5.09s-1.27,3.46-1.67,5a.35.35,0,0,1-.05-.08c-.36-.56-3.28-9.53-3.46-10.08-.49-1.45-1.18-4-2.13-4.66a4.94,4.94,0,0,0-2.91-.59,17.73,17.73,0,0,0-3.29.08V53.93h4.26l0-16.06Z" transform="translate(-14.75 -9.85)"/><path class="cls-1" d="M209.24,37.71a5.74,5.74,0,0,1,.81,1.31c.26.43.45.77.7,1.24.46.86.91,1.59,1.39,2.49,1,1.77,4.75,8.71,5.73,9.79A4.44,4.44,0,0,0,220.32,54a15.44,15.44,0,0,0,3.66.1l0-22.52-4.29,0V47c-.25-.18,0,0-.28-.27l-1.1-1.93c-1.88-3-4.25-7.42-6.14-10.67-1.72-3-3-2.59-7.22-2.54V53.93l4.31,0V37.71Z" transform="translate(-14.75 -9.85)"/><path class="cls-1" d="M245.44,35.16c4.41-.69,6.52,2.7,6.81,6.61.32,4.3-1,8.13-4.8,8.73-4.41.7-6.57-2.65-6.85-6.61-.2-2.79.24-6,2.4-7.75a5.15,5.15,0,0,1,2.44-1ZM235.6,43.8c.36,6.62,4.72,10.86,11.83,10.34,6.62-.49,10.26-5.32,9.81-12.4-.42-6.6-4.72-10.81-11.81-10.28-6.57.49-10.22,5.33-9.83,12.34Z" transform="translate(-14.75 -9.85)"/><path class="cls-1" d="M190.8,35.39h10.81v-3.8H185.86V50.8c0,2.3.91,3.16,3.24,3.16h12.56v-3.7H190.8V43.64c2.51,0,7.35.11,9.47,0l0-3.52c-3.09-.07-6.32,0-9.43,0V35.39Z" transform="translate(-14.75 -9.85)"/><path class="cls-1" d="M129.75,50c-6-.46-13.29,2.33-13.21-7.38.06-8.59,6.47-7.41,7.83-6.33,1.08.85,1.13,2,1.33,3.72l4,0a8.73,8.73,0,0,0-2-6.43c-1.32-1.33-3.78-2.1-6.37-2.12-9.18-.07-11,8.51-9.6,15.07,1,4.75,4.63,7.31,9.6,7.44,1.34,0,2.87.06,4.2,0s2.89.08,4.18,0l0-3.92Z" transform="translate(-14.75 -9.85)"/><path class="cls-1" d="M168.15,31.59c-.12.91,0,17.28,0,18.68,0,4.09,1.58,3.69,5.66,3.69,3.11,0,6.27-.05,9.38,0v-4H173.11l0-18.38-4.92,0Z" transform="translate(-14.75 -9.85)"/><polygon class="cls-1" points="144.81 44.11 149.79 44.11 149.8 21.71 149.34 21.71 145.35 21.71 144.81 21.71 144.81 44.11 144.81 44.11"/><polygon class="cls-1" points="212.82 44.08 217.8 44.09 217.8 21.71 212.81 21.71 212.82 22.63 212.82 44.08 212.82 44.08"/></svg>