<svg id="Layer_1" data-name="Layer 1" xmlns="http://www.w3.org/2000/svg" viewBox="0 0 250 91.28"><defs><style>.cls-1{fill:#fff;}</style></defs><title>logo-vitro</title><path class="cls-1" d="M127.07,15.37H38.36s-9.64.77-9.66,12.36c0,11.79,0,11.54,0,11.54a1.39,1.39,0,0,0,1.48,1H53s4.53-.25,7.93,5.92,13,21.64,13,21.64a2,2,0,0,0,3.37.38l24.31-40.4s1.76-3.39,7.42-3.39h18.12A1.38,1.38,0,0,0,128.58,23V16.75A1.4,1.4,0,0,0,127.07,15.37Z" transform="translate(-28.68 -15.37)"/><path class="cls-1" d="M28.68,47.86s-.14-1.48,1.69-1.55h11.2s1.9-.42,5.21,5,29.13,49.12,29.13,49.12.78,1.25-.56,1.48H38.19s-8.51-1.15-9.49-9.6Z" transform="translate(-28.68 -15.37)"/><path class="cls-1" d="M128.21,57.78s.14-1.47-1.75-1.54H114.88s-2-.3-3.65,2.56L87,100.43a1,1,0,0,0,.86,1.48h30.5s8.59-1,9.61-9.43Z" transform="translate(-28.68 -15.37)"/><rect class="cls-1" x="103.59" y="40.86" width="12.72" height="45.35" rx="1.04"/><path class="cls-1" d="M211.75,56.23H185.82a1,1,0,0,0-1,1v43.27a1,1,0,0,0,1,1h10.63a1,1,0,0,0,1-1V67.78a5.68,5.68,0,0,1,5.63-5.64,5.49,5.49,0,0,1,5.58,5.56v5.45a1,1,0,0,0,1,1.06h10a1,1,0,0,0,1-1.06V65.22S220.41,57.41,211.75,56.23Z" transform="translate(-28.68 -15.37)"/><path class="cls-1" d="M182.83,95.69a2.11,2.11,0,0,0-1.12-.65h-6.84c-5.06-.33-5.23-5.48-5.23-5.48V63.7h11.78a.92.92,0,0,0,.92-.92V56.71a.92.92,0,0,0-.92-.92H169.64V47.34a1,1,0,0,0-1-1H158a1,1,0,0,0-1,1v8.45h-7.81a.92.92,0,0,0-.92.92v6.07a.92.92,0,0,0,.92.92h7.81V89.56c0,.26,0,.52,0,.77v.28a.9.9,0,0,0,0,.23c.72,9.79,13.8,11.13,13.8,11.13,8.38.84,12.08-2,12.08-2C183.24,99.35,183.67,96.82,182.83,95.69Z" transform="translate(-28.68 -15.37)"/><path class="cls-1" d="M255.75,84.41a10.3,10.3,0,0,1-10.11,10.48h0a10.3,10.3,0,0,1-10.11-10.48v-11a10.31,10.31,0,0,1,10.11-10.48h0A10.31,10.31,0,0,1,255.75,73.4Zm12.89-13.53c0-8.44-10.3-15.28-23-15.28h0c-12.7,0-23,6.84-23,15.28V86.94c0,8.43,10.3,15.28,23,15.28h0c12.7,0,23-6.85,23-15.28Z" transform="translate(-28.68 -15.37)"/><path class="cls-1" d="M278.68,101.3A5.46,5.46,0,1,1,273.27,96,5.36,5.36,0,0,1,278.68,101.3Zm-9.56,0a4.14,4.14,0,0,0,4.15,4.25,4.07,4.07,0,0,0,4.05-4.21,4.1,4.1,0,1,0-8.2,0Zm3.27,2.76h-1.23V98.75a13.55,13.55,0,0,1,2-.17A2.9,2.9,0,0,1,275,99a1.34,1.34,0,0,1-.55,2.4v.07c.51.16.77.58.94,1.29a4.66,4.66,0,0,0,.39,1.3h-1.3a4.28,4.28,0,0,1-.42-1.3c-.1-.55-.42-.81-1.1-.81h-.59Zm0-3H273c.68,0,1.23-.23,1.23-.78s-.36-.81-1.13-.81a2.48,2.48,0,0,0-.68.07Z" transform="translate(-28.68 -15.37)"/></svg>