<svg id="Capa_1" data-name="Capa 1" xmlns="http://www.w3.org/2000/svg" viewBox="0 0 247.99 69.56"><defs><style>.cls-1{fill:#748386;}</style></defs><title>logo-risoul</title><path class="cls-1" d="M51.17,16.32a35.78,35.78,0,0,1,20.65,10A33.82,33.82,0,0,1,82,50.18c.09,12.67-5.31,22.35-15.57,29.61-1.6,1.13-2.64.95-3.9-.46C60.82,77.4,58.94,75.6,57,73.84c-1.23-1.14-1-1.61.43-2.36C65.94,67,70.4,60,70.36,50.33,70.32,37.76,60,27.68,47,27.54c-7.65-.08-15.29,0-22.94,0-.75,0-1.87.41-2.16-.5s.77-1.31,1.35-1.83A35,35,0,0,1,51.17,16.32Z" transform="translate(-11.91 -16.05)"/><path class="cls-1" d="M23.36,60,48.89,85c-3.06,1.14-5.5.36-7.87,0C22.11,82.31,8.54,62.56,12.64,44c.42-1.89,1.22-2.49,3.1-2.48,10.33.08,20.66,0,31,.05,5.53,0,9.85,4.17,9.78,9.31s-4.27,9.09-9.72,9.1C39.23,60,31.68,60,23.36,60Z" transform="translate(-11.91 -16.05)"/><path class="cls-1" d="M211.7,44.33c5,0,5,0,4.19,4.82q-1,5.85-1.72,11.73c-.27,2.13,0,4.15,2.55,4.84,2.37.66,4.52-.56,5.42-3.3,1.35-4.07,1.71-8.37,2.35-12.59.83-5.48.69-5.5,6.36-5.5,4.6,0,4.64,0,3.9,4.58-.76,4.77-1.29,9.59-2.45,14.3a12.36,12.36,0,0,1-10,9.8,19.63,19.63,0,0,1-12.43-.85,9.74,9.74,0,0,1-6-10.78c.66-4.63,1.59-9.23,2.06-13.88.27-2.61,1.3-3.58,3.84-3.18A12.55,12.55,0,0,0,211.7,44.33Z" transform="translate(-11.91 -16.05)"/><path class="cls-1" d="M155.94,73.52a21.93,21.93,0,0,1-9.86-2.3c-1.48-.65-2-1.45-1.07-3s1.22-3.57,2.47-4.34c1.43-.88,2.92,1.1,4.47,1.63a11.13,11.13,0,0,0,4.52.8c1.21-.1,2.29-.44,2.58-1.77s-.7-2.1-1.73-2.6c-1.53-.75-3.14-1.32-4.69-2-3.12-1.44-5.63-3.46-5.51-7.24s2.28-6.54,5.72-8.05c5.09-2.25,10.13-1.63,15.06.69,1.31.61,1.69,1.4.88,2.64,0,.07-.07.15-.11.22-.69,1.36-1,3.23-2.17,3.94s-2.43-1.13-3.83-1.44a10.44,10.44,0,0,0-1.39-.41c-1.69-.14-3.81-.58-4.35,1.54s1.71,2.14,3,2.77c1.45.71,3,1.3,4.42,2,7,3.55,5.19,12.09,0,14.95A15.63,15.63,0,0,1,155.94,73.52Z" transform="translate(-11.91 -16.05)"/><path class="cls-1" d="M239.7,72.52c-5.2,0-5.2,0-4.35-5.18,1.93-11.94,3.9-23.87,5.75-35.81.29-1.91,1-2.73,2.92-2.52,1.21.12,2.44,0,3.66,0,5,.07,4.15-.37,3.49,4-1.86,12.18-3.95,24.34-5.79,36.52-.37,2.43-1.32,3.41-3.73,3A11.53,11.53,0,0,0,239.7,72.52Z" transform="translate(-11.91 -16.05)"/><path class="cls-1" d="M135.48,72.52c-5,0-5,0-4.21-5.14,1.14-7.08,2.33-14.15,3.4-21.24.19-1.29.61-1.86,2-1.82q3.3.09,6.58,0c1.39,0,1.91.46,1.69,1.85q-2,12.3-3.91,24.6c-.19,1.25-.76,1.85-2.09,1.76C137.76,72.46,136.62,72.52,135.48,72.52Z" transform="translate(-11.91 -16.05)"/><path class="cls-1" d="M35,30.78c-4.71,0-9.43,0-14.14,0-.63,0-1.73.44-1.77-.64s.91-1.2,1.8-1.2h9.27c5.77,0,11.54-.07,17.31,0a21.78,21.78,0,0,1,9.4,41.34c-.15.07-.29.16-.44.22-.87.36-2,1.16-2.56,0s1-1.17,1.63-1.5C62.85,65.32,67,59.44,67.25,51.33c.25-7.9-3.39-14-10.25-18a17.4,17.4,0,0,0-9-2.52C43.65,30.81,39.34,30.78,35,30.78Z" transform="translate(-11.91 -16.05)"/><path class="cls-1" d="M32.94,37c-5.21,0-10.41,0-15.62,0-.7,0-1.9.4-1.88-.84,0-1.09,1.13-1,1.92-1,10.33,0,20.66-.15,31,0,7.58.15,13.78,6.72,14.45,14.8C63.35,57,58,64.15,51.11,65.77a9.71,9.71,0,0,1-1.19.26,1.27,1.27,0,0,1-1.47-1c-.13-.87.75-.6,1.23-.72C59.54,61.88,64,52,58.89,43.56a12.61,12.61,0,0,0-10.82-6.45c-5-.16-10.09,0-15.13,0Z" transform="translate(-11.91 -16.05)"/><path class="cls-1" d="M34.16,32.17c4.63,0,9.27-.12,13.9,0A18.58,18.58,0,0,1,54.57,67.9c-.37.16-.76.29-1.13.43-.81.31-1.76.56-2.11-.41s.8-1,1.37-1.18C60.87,63.55,65.31,56,63.85,47.66c-1.39-7.91-8.37-13.74-17-13.88s-17.57,0-26.35,0a13.94,13.94,0,0,1-1.71,0c-.57-.07-1.54.34-1.6-.56s.91-1,1.63-1c4.06,0,8.13,0,12.2,0h3.17Z" transform="translate(-11.91 -16.05)"/><path class="cls-1" d="M45.32,61.82c.86-.61,1.7-.33,2.48-.41a10.68,10.68,0,0,0-.71-21.33c-10.25-.07-20.5,0-30.74,0-.77,0-2.13.56-2.2-.7s1.3-1.15,2.23-1.15c9.93,0,19.85-.12,29.77,0s16.13,8.93,12.32,17.61c-1.91,4.35-5.52,6.66-10.18,7.35C47.15,63.34,46,63.31,45.32,61.82Z" transform="translate(-11.91 -16.05)"/><path class="cls-1" d="M146.47,35.93a5.38,5.38,0,0,1-5.28,5.47,5.47,5.47,0,1,1,0-10.94A5.35,5.35,0,0,1,146.47,35.93Z" transform="translate(-11.91 -16.05)"/><path class="cls-1" d="M32.88,61.47a3.47,3.47,0,0,1,2.36,1.43q9.81,9.74,19.6,19.5c.5.5,1.75,1,1,1.83-.85,1-1.74.07-2.44-.62L35.9,66.18c-1.15-1.14-2.3-2.28-3.43-3.43-.28-.29-.61-.65-.3-1C32.33,61.52,32.74,61.51,32.88,61.47Z" transform="translate(-11.91 -16.05)"/><path class="cls-1" d="M36.07,61.93a2.37,2.37,0,0,1,3.23.59q9.63,9.57,19.26,19.15c.4.4,1.31.79.76,1.52s-1.32.5-1.92-.09Z" transform="translate(-11.91 -16.05)"/><path class="cls-1" d="M27.23,61.75c1.64-.65,2.46.15,3.28,1Q40.94,73.06,51.36,83.42c.41.41,1.35.81.79,1.48s-1.35.33-2-.19c-.25-.21-.48-.43-.71-.66Q38.78,73.45,28.1,62.82A13.24,13.24,0,0,1,27.23,61.75Z" transform="translate(-11.91 -16.05)"/><path class="cls-1" d="M40.85,61.75c1.4-.65,2.17.07,2.94.83,5.92,5.89,11.86,11.76,17.76,17.67.43.43,1.5.86.72,1.71s-1.34.12-1.88-.41l-19.15-19A3.28,3.28,0,0,1,40.85,61.75Z" transform="translate(-11.91 -16.05)"/><path class="cls-1" d="M121,59.16c-1.58-2.56-1.57-2.57,1.18-3.54,5.46-1.93,9.07-7.36,8.52-12.78-.65-6.38-4.4-10.15-11-11-5.19-.65-10.41-.15-15.6-.36-1.84-.08-2.54.57-2.82,2.36Q98.38,52.4,95.35,70.91c-.2,1.22.26,1.62,1.41,1.61,2.68,0,5.37,0,8,0,1,0,1.52-.34,1.62-1.36.08-.8.27-1.59.41-2.38.62-3.53.86-7.13,2-11.13,1.29,2.49,2.31,4.48,3.35,6.46,1.43,2.71,2.25,6.25,4.48,7.9s6,.35,9,.51c.4,0,.81,0,1.22,0,2,.18,2-.62,1-2C125.62,66.73,123.29,62.94,121,59.16Zm-6.24-9a23.37,23.37,0,0,1-2.78.17c-2,.52-2.23-.77-1.74-2.88s.72-4.29,1-6.45c.1-.68.22-1.18,1.07-1.36,3-.66,6.69,1.06,7.25,3.47C120.37,46.63,118.48,49.42,114.72,50.14Z" transform="translate(-11.91 -16.05)"/><path class="cls-1" d="M199,48.35c-4-4.92-9.54-5.85-15.45-4.8-9,1.6-13.88,8.76-13.37,17,.52,8.37,6,13,14.78,13a20,20,0,0,0,2.19,0c6.09-.67,10.82-3.51,13.36-9.14S202.87,53.22,199,48.35Zm-10.34,16a6,6,0,0,1-6.26.19c-2.06-1.13-2.42-3.08-2.4-5.18.13-4.75,3.3-8.06,7.44-7.79A4.74,4.74,0,0,1,192,55.47C192.85,58.82,191.34,62.81,188.62,64.38Z" transform="translate(-11.91 -16.05)"/><circle class="cls-1" cx="242.99" cy="51.94" r="5"/></svg>