<svg xmlns="http://www.w3.org/2000/svg" viewBox="0 0 100 100" x="0px" y="0px"><title>Printer</title><g data-name="Layer 2"><path d="M85,12.27a4.66,4.66,0,0,0-4.66-4.66H44.13l-4-5.51a1,1,0,0,0-.81-.41H19.65A4.66,4.66,0,0,0,15,6.35v19.8a1,1,0,0,0,1,1h2.67v17H16a1,1,0,0,0-1,1V89.29a4.41,4.41,0,0,0,4.4,4.4h2.19c0,.07,0,.13,0,.19a4.43,4.43,0,1,0,8.85,0,1.37,1.37,0,0,0,0-.19h39.2c0,.07,0,.13,0,.19a4.43,4.43,0,0,0,8.86,0c0-.06,0-.12,0-.19h2.18a4.4,4.4,0,0,0,4.4-4.4V45.22a.14.14,0,0,0,0-.06Zm-2,77a2.4,2.4,0,0,1-2.4,2.4H19.39a2.41,2.41,0,0,1-2.4-2.4V83H83Zm-6.56,4.59a2.43,2.43,0,0,1-4.86,0c0-.06,0-.12,0-.19h4.82C76.41,93.76,76.43,93.82,76.43,93.88Zm-48,0a2.43,2.43,0,1,1-4.85,0,1.37,1.37,0,0,1,0-.19h4.81A1.37,1.37,0,0,1,28.41,93.88ZM65.74,31.64h4.54c2.84,0,5.19-2.57,5.59-6.12l.83-7.34a3.9,3.9,0,0,0-.9-3,2.82,2.82,0,0,0-2.12-1H26.32a2.82,2.82,0,0,0-2.12,1,3.9,3.9,0,0,0-.9,3l.79,7H17V6.35a2.67,2.67,0,0,1,2.66-2.66H38.81l4,5.51a1,1,0,0,0,.8.41H80.35A2.67,2.67,0,0,1,83,12.27V44.16H65.74ZM26.12,25.29,25.29,18a1.86,1.86,0,0,1,.41-1.46.85.85,0,0,1,.62-.32H73.68a.82.82,0,0,1,.62.32A1.86,1.86,0,0,1,74.71,18l-.83,7.34c-.28,2.48-1.82,4.35-3.6,4.35H29.72C27.94,29.64,26.4,27.77,26.12,25.29ZM83,81H17V72.31H83ZM17,46.16H83V70.31H17Zm3.67-19h3.81c.84,2.68,2.87,4.49,5.25,4.49h34v5.23L52.49,35.66H30.58a1,1,0,0,0,0,2H52.33l11.41,1.22v5.28H20.66Z"/><path d="M55.61,53.67H44.37a1,1,0,1,0,0,2H55.61a1,1,0,0,0,0-2Z"/><path d="M44.37,77.65H55.61a1,1,0,0,0,0-2H44.37a1,1,0,0,0,0,2Z"/><path d="M44.37,88.34H55.61a1,1,0,0,0,0-2H44.37a1,1,0,0,0,0,2Z"/><path d="M29.78,26.52H51.69a1,1,0,0,0,1-1V20.3a1,1,0,0,0-1-1H29.78a1,1,0,0,0-1,1v5.22A1,1,0,0,0,29.78,26.52Zm1-5.22H50.69v3.22H30.78Z"/></g></svg>