<svg xmlns="http://www.w3.org/2000/svg" xmlns:xlink="http://www.w3.org/1999/xlink" version="1.1" x="0px" y="0px" viewBox="0 0 100 100" enable-background="new 0 0 100 100" xml:space="preserve"><g><g><g><line fill="none" stroke="#000000" stroke-width="3" stroke-linecap="round" stroke-miterlimit="10" x1="38.936" y1="29.669" x2="37.128" y2="31.487"/><path fill="none" stroke="#000000" stroke-width="3" stroke-linecap="round" stroke-linejoin="round" stroke-miterlimit="10" d="     M29.692,38.918c-6.081,2.469-13.315,1.24-18.248-3.693C6.81,30.591,5.445,23.928,7.349,18.098"/><path fill="none" stroke="#000000" stroke-width="3" stroke-linecap="round" stroke-linejoin="round" stroke-miterlimit="10" d="     M18.113,7.334c5.825-1.909,12.493-0.538,17.127,4.096c4.928,4.928,6.162,12.156,3.693,18.237"/><path fill="none" stroke="#000000" stroke-width="3" stroke-linecap="round" stroke-linejoin="round" stroke-miterlimit="10" d="     M18.113,7.334l7.125,7.125c1.991,1.991,1.991,5.211,0.005,7.196l-3.573,3.573c-1.985,1.985-5.205,1.985-7.196-0.005l-7.125-7.125     "/><path fill="none" stroke="#000000" stroke-width="3" stroke-linecap="round" stroke-linejoin="round" stroke-miterlimit="10" d="     M56.75,47.49c12.14,12.15,27.33,27.34,34.83,34.84c1.28,1.28,1.91,2.95,1.91,4.63c0,1.67-0.63,3.34-1.91,4.62     c-2.56,2.55-6.7,2.55-9.25,0L50.5,59.73"/><path fill="none" stroke="#000000" stroke-width="3" stroke-linecap="round" stroke-linejoin="round" stroke-miterlimit="10" d="     M52.51,43.25C44.89,35.63,39.26,30,38.94,29.68c-0.01-0.01-0.01-0.01-0.01-0.01"/><line fill="none" stroke="#000000" stroke-width="3" stroke-linecap="round" stroke-linejoin="round" stroke-miterlimit="10" x1="40.27" y1="49.5" x2="29.69" y2="38.92"/></g><g><path fill="none" stroke="#000000" stroke-width="3" stroke-linecap="round" stroke-linejoin="round" stroke-miterlimit="10" d="     M17.219,92.825L7.175,82.781c-1.497-1.497-1.497-3.924,0-5.421l26.574-26.574c1.497-1.497,3.924-1.497,5.421,0L49.214,60.83     c1.497,1.497,1.497,3.924,0,5.421L22.64,92.825C21.143,94.322,18.716,94.322,17.219,92.825z"/><path fill="none" stroke="#000000" stroke-width="3" stroke-linecap="round" stroke-linejoin="round" stroke-miterlimit="10" d="     M49.305,60.921L39.079,50.695l3.196-3.196c1.106-1.106,2.9-1.106,4.007,0l6.22,6.22c1.106,1.106,1.106,2.9,0,4.007L49.305,60.921     z"/><line fill="none" stroke="#000000" stroke-width="3" stroke-linecap="round" stroke-linejoin="round" stroke-miterlimit="10" x1="33.481" y1="61.094" x2="9.485" y2="85.09"/><line fill="none" stroke="#000000" stroke-width="3" stroke-linecap="round" stroke-linejoin="round" stroke-miterlimit="10" x1="38.906" y1="66.519" x2="14.91" y2="90.515"/><polyline fill="none" stroke="#000000" stroke-width="3" stroke-linecap="round" stroke-linejoin="round" stroke-miterlimit="10" points="     80.704,23.531 51.507,52.729 47.271,48.493 76.469,19.296    "/><polyline fill="none" stroke="#000000" stroke-width="3" stroke-linecap="round" stroke-linejoin="round" stroke-miterlimit="10" points="     80.704,23.531 86.187,23.915 93.5,10.735 89.265,6.5 76.085,13.813 76.469,19.296    "/><path fill="none" stroke="#000000" stroke-width="3" stroke-linecap="round" stroke-linejoin="round" stroke-miterlimit="10" d="     M33.481,61.094c1.498-1.498,3.927-1.498,5.425,0s1.498,3.927,0,5.425"/></g></g></g><text x="0" y="115" fill="#000000" font-size="5px" font-weight="bold" font-family="'Helvetica Neue', Helvetica, Arial-Unicode, Arial, Sans-serif"></text><text x="0" y="120" fill="#000000" font-size="5px" font-weight="bold" font-family="'Helvetica Neue', Helvetica, Arial-Unicode, Arial, Sans-serif"></text></svg>